<svg width="168" height="1732" xmlns="http://www.w3.org/2000/svg" xmlns:xlink="http://www.w3.org/1999/xlink" overflow="hidden"><defs><clipPath id="clip0"><rect x="37" y="61" width="168" height="1732"/></clipPath></defs><g clip-path="url(#clip0)" transform="translate(-37 -61)"><path d="M158.326 1265.9 0 1107.57 0 1241.1 158.326 1398.95 158.326 1265.9Z" fill="#DF1683" transform="matrix(1 0 0 1.00231 41.8368 61)"/><path d="M158.326 1029.36 0 870.796 0 1004.32 158.326 1162.41 158.326 1029.36Z" fill="#270089" transform="matrix(1 0 0 1.00231 41.8368 61)"/><path d="M158.326 792.825 0 634.26 0 767.788 158.326 925.638 158.326 792.825Z" fill="#C2D500" transform="matrix(1 0 0 1.00231 41.8368 61)"/><path d="M158.326 556.05 0 397.724 0 531.014 158.326 689.102 158.326 556.05Z" fill="#3CB4E5" transform="matrix(1 0 0 1.00231 41.8368 61)"/><path d="M158.326 1565.14 0 1398.95 0 1532.48 30.9977 1563.47 0 1594.47 0 1728 158.326 1565.14Z" fill="#3CB4E5" transform="matrix(1 0 0 1.00231 41.8368 61)"/><path d="M158.326 166.195 0 0 0 133.528 30.9977 164.526 0 195.524 0 329.052 158.326 166.195Z" fill="#FFCD00" transform="matrix(1 0 0 1.00231 41.8368 61)"/></g></svg>